<svg width="957" height="162" viewBox="0 0 957 162" fill="none" xmlns="http://www.w3.org/2000/svg">
<rect width="338.699" height="78.4866" transform="translate(618.153 56.7539) rotate(3.67177)" fill="#181818"/>
<path d="M699.816 124.568C712.657 124.568 723.066 114.159 723.066 101.318C723.066 88.4779 712.657 78.0685 699.816 78.0685C686.976 78.0685 676.566 88.4779 676.566 101.318C676.566 114.159 686.976 124.568 699.816 124.568Z" fill="#EA4C89"/>
<path fill-rule="evenodd" clip-rule="evenodd" d="M699.816 77.3185C686.567 77.3185 675.816 88.069 675.816 101.318C675.816 114.568 686.567 125.318 699.816 125.318C713.04 125.318 723.816 114.568 723.816 101.318C723.816 88.069 713.04 77.3185 699.816 77.3185ZM715.669 88.3814C718.532 91.8695 720.25 96.3206 720.302 101.136C719.625 101.006 712.857 99.6265 706.038 100.486C705.881 100.147 705.751 99.7826 705.595 99.4183C705.178 98.4292 704.71 97.414 704.241 96.4508C711.79 93.3793 715.226 88.9541 715.669 88.3814ZM699.816 80.8586C705.022 80.8586 709.786 82.8109 713.404 86.0126C713.04 86.5332 709.942 90.6721 702.654 93.4052C699.296 87.236 695.573 82.1862 695.001 81.4052C696.536 81.0408 698.15 80.8586 699.816 80.8586ZM691.096 82.7849C691.643 83.5137 695.287 88.5896 698.697 94.6286C689.118 97.1797 680.658 97.1276 679.747 97.1276C681.074 90.7762 685.369 85.492 691.096 82.7849ZM679.304 101.345C679.304 101.136 679.304 100.928 679.304 100.72C680.189 100.746 690.133 100.876 700.363 97.8044C700.962 98.9497 701.508 100.121 702.029 101.292C701.769 101.371 701.482 101.449 701.222 101.527C690.654 104.937 685.031 114.256 684.562 115.036C681.309 111.418 679.304 106.603 679.304 101.345ZM699.816 121.83C695.079 121.83 690.706 120.217 687.244 117.509C687.608 116.755 691.773 108.737 703.33 104.702C703.382 104.676 703.408 104.676 703.461 104.65C706.35 112.121 707.521 118.394 707.834 120.19C705.361 121.258 702.654 121.83 699.816 121.83ZM711.244 118.316C711.035 117.067 709.942 111.08 707.261 103.713C713.691 102.698 719.313 104.364 720.016 104.598C719.131 110.299 715.851 115.219 711.244 118.316Z" fill="#C32361"/>
<path d="M751.529 110.83C747.99 110.603 745.794 108.009 746.035 104.254C746.276 100.5 748.965 98.2197 752.81 98.4664C756.223 98.6854 758.483 100.562 758.304 103.346L758.295 103.49L756.158 103.353L756.167 103.209C756.277 101.485 755.134 100.473 752.637 100.313C749.745 100.128 748.275 101.386 748.083 104.386C747.89 107.386 749.17 108.803 751.99 108.984C754.864 109.168 756.047 108.45 756.177 106.42L756.187 106.259L751.733 105.973L751.827 104.5L758.204 104.909L757.81 111.052L756.049 110.939L756.217 108.335L756.091 108.327C755.475 110.055 753.882 110.981 751.529 110.83ZM763.152 111.576C760.637 111.414 759.523 109.665 759.656 107.6L760 102.229L761.922 102.352L761.611 107.202C761.504 108.873 762.222 109.766 764.108 109.887C766.084 110.014 767.065 109.067 767.189 107.127L767.473 102.708L769.395 102.831L768.822 111.759L767.044 111.645L767.221 108.879L767.113 108.872C766.729 110.362 765.451 111.723 763.152 111.576ZM775.064 112.34C772.136 112.152 770.32 110.376 770.511 107.394C770.69 104.61 772.714 102.864 775.624 103.051C778.39 103.228 780.178 104.876 780.004 107.589C779.983 107.912 779.949 108.162 779.878 108.428L772.298 107.942C772.259 109.671 773.044 110.641 775.11 110.774C776.978 110.894 777.79 110.332 777.858 109.273L777.867 109.129L779.807 109.253L779.797 109.415C779.675 111.319 777.722 112.511 775.064 112.34ZM775.49 104.575C773.514 104.449 772.595 105.273 772.385 106.865L778.187 107.238L778.189 107.202C778.295 105.549 777.394 104.698 775.49 104.575ZM785.355 113C782.481 112.816 780.918 111.579 781.051 109.514L781.055 109.46L782.995 109.584L782.985 109.728C782.91 110.896 783.587 111.318 785.455 111.438C787.197 111.549 787.741 111.224 787.792 110.433C787.839 109.697 787.423 109.436 786.159 109.174L783.737 108.694C782.062 108.37 781.085 107.586 781.18 106.095C781.281 104.532 782.771 103.509 785.519 103.686C788.25 103.861 789.832 105.063 789.696 107.183L789.693 107.236L787.771 107.113L787.778 107.005C787.846 105.945 787.342 105.354 785.366 105.227C783.732 105.122 783.134 105.445 783.08 106.289C783.035 106.99 783.378 107.264 784.714 107.53L786.761 107.95C788.863 108.356 789.787 109.136 789.693 110.609C789.585 112.28 787.869 113.162 785.355 113ZM796.789 113.554L794.741 113.422C792.819 113.299 791.688 112.379 791.827 110.205L792.103 105.912L790.594 105.815L790.698 104.199L792.207 104.295L792.332 102.337L794.254 102.461L794.129 104.419L797.362 104.626L797.258 106.243L794.025 106.035L793.756 110.221C793.686 111.317 794.171 111.636 795.284 111.708L796.901 111.811L796.789 113.554ZM806.109 114.332C802.516 114.102 800.785 112.403 800.948 109.871L800.955 109.763L802.895 109.887L802.876 110.175C802.784 111.612 803.582 112.384 806.223 112.554C808.522 112.701 809.363 112.25 809.435 111.119C809.502 110.077 808.917 109.642 807.408 109.257L804.494 108.583C802.487 108.094 801.11 107.067 801.236 105.091C801.348 103.349 802.898 101.681 806.635 101.92C810.155 102.146 811.641 104.009 811.49 106.363L811.483 106.47L809.561 106.347L809.576 106.113C809.671 104.64 808.838 103.848 806.341 103.687C804.149 103.547 803.253 104.03 803.183 105.108C803.117 106.15 803.705 106.53 805.105 106.927L808.001 107.618C810.38 108.203 811.495 109.375 811.382 111.135C811.265 112.968 809.665 114.56 806.109 114.332ZM814.289 117.743L812.349 117.619L813.118 105.637L814.896 105.751L814.737 108.23L814.899 108.241C815.364 106.611 816.686 105.686 818.788 105.821C821.554 105.998 822.996 107.985 822.818 110.751C822.641 113.517 820.994 115.287 818.21 115.109C816.198 114.98 814.973 113.837 814.718 112.179L814.646 112.175L814.289 117.743ZM814.762 110.378C814.644 112.211 815.754 113.184 817.658 113.306C819.58 113.429 820.741 112.764 820.878 110.627C821.017 108.471 819.931 107.68 818.063 107.56C816.069 107.432 814.895 108.295 814.772 110.217L814.762 110.378ZM828.356 115.76C825.428 115.572 823.612 113.796 823.804 110.814C823.983 108.03 826.006 106.284 828.916 106.471C831.683 106.648 833.471 108.296 833.297 111.009C833.276 111.332 833.242 111.582 833.171 111.848L825.59 111.362C825.552 113.091 826.337 114.061 828.403 114.194C830.271 114.314 831.083 113.752 831.151 112.693L831.16 112.549L833.1 112.673L833.089 112.835C832.967 114.739 831.015 115.931 828.356 115.76ZM828.783 107.995C826.807 107.869 825.888 108.693 825.678 110.285L831.48 110.657L831.482 110.622C831.588 108.969 830.687 108.117 828.783 107.995ZM837.049 116.318C835.198 116.199 834.086 115.262 834.181 113.789C834.269 112.406 835.429 111.759 837.202 111.674L841.29 111.503L841.323 110.983C841.418 109.51 840.804 108.947 839.098 108.838C837.445 108.732 836.602 109.219 836.518 110.53L836.514 110.602L834.592 110.478L834.596 110.407C834.726 108.377 836.513 106.958 839.351 107.14C842.189 107.322 843.365 108.949 843.228 111.087L842.88 116.512L841.102 116.397L841.245 114.17L841.119 114.162C840.555 115.641 839.078 116.448 837.049 116.318ZM836.129 113.788C836.083 114.506 836.546 114.879 837.659 114.95C839.689 115.08 841.103 114.413 841.216 112.653L837.688 112.824C836.674 112.885 836.174 113.087 836.129 113.788ZM846.552 116.747L844.612 116.623L845.384 104.587L847.324 104.712L846.898 111.358L849.448 111.522L852.352 108.155L854.615 108.3L850.981 112.378L854.025 117.227L851.743 117.08L849.337 113.264L846.786 113.101L846.552 116.747ZM859.476 117.757C856.548 117.569 854.732 115.793 854.923 112.811C855.102 110.027 857.126 108.281 860.036 108.468C862.802 108.645 864.591 110.293 864.416 113.006C864.396 113.329 864.362 113.579 864.29 113.845L856.71 113.359C856.671 115.088 857.457 116.058 859.522 116.191C861.391 116.311 862.202 115.749 862.27 114.69L862.279 114.546L864.219 114.67L864.209 114.832C864.087 116.736 862.135 117.928 859.476 117.757ZM859.902 109.992C857.926 109.866 857.008 110.69 856.797 112.282L862.599 112.655L862.602 112.619C862.708 110.966 861.806 110.115 859.902 109.992ZM867.497 118.091L865.557 117.967L866.13 109.039L867.908 109.153L867.754 111.56L867.88 111.568C868.241 110.149 869.285 109.061 871.117 109.179C873.147 109.309 873.934 110.821 873.826 112.509L873.751 113.677L871.829 113.553L871.879 112.763C871.961 111.488 871.46 110.86 870.131 110.775C868.604 110.677 867.921 111.481 867.819 113.08L867.497 118.091ZM878.871 119.002C875.997 118.817 874.435 117.581 874.568 115.515L874.571 115.461L876.511 115.585L876.502 115.729C876.427 116.897 877.103 117.319 878.972 117.439C880.714 117.551 881.258 117.225 881.309 116.434C881.356 115.698 880.94 115.437 879.676 115.175L877.254 114.695C875.579 114.371 874.601 113.587 874.697 112.096C874.797 110.533 876.288 109.511 879.036 109.687C881.766 109.862 883.349 111.064 883.213 113.184L883.209 113.238L881.287 113.114L881.294 113.006C881.362 111.947 880.859 111.355 878.883 111.228C877.248 111.124 876.651 111.446 876.596 112.29C876.551 112.991 876.895 113.265 878.23 113.531L880.278 113.951C882.38 114.357 883.304 115.138 883.209 116.611C883.102 118.281 881.386 119.163 878.871 119.002ZM889.443 115.568L887.503 115.443L887.543 114.832C887.612 113.755 888.296 113.203 889.422 112.807L890.751 112.333C891.804 111.949 892.367 111.607 892.42 110.78C892.479 109.864 891.983 109.165 889.665 109.016C887.151 108.855 886.257 109.573 886.16 111.082L886.127 111.603L884.222 111.481L884.249 111.068C884.392 108.84 886.078 107.019 889.904 107.264C893.227 107.477 894.48 109.037 894.365 110.833C894.253 112.575 892.964 113.268 891.69 113.728L890.362 114.184C889.661 114.427 889.501 114.669 889.468 115.19L889.443 115.568ZM889.336 119.493L887.144 119.352L887.315 116.694L889.506 116.834L889.336 119.493Z" fill="white"/>
<rect width="73.2191" height="75.4868" transform="translate(883.219 73.8621) rotate(3.60256)" fill="url(#paint0_linear_57_56)"/>
<path d="M912.863 117.775L921.907 109.888M921.328 118.353L913.442 109.309" stroke="white" stroke-width="1.5" stroke-linecap="round" stroke-linejoin="round"/>
<rect width="338.699" height="78.4866" transform="translate(375 41.4028) rotate(-7.02018)" fill="#181818"/>
<g clip-path="url(#clip0_57_56)">
<path d="M477.589 71.265C477.589 58.0102 466.843 47.265 453.589 47.265C440.334 47.265 429.589 58.0102 429.589 71.265C429.589 83.2439 438.365 93.173 449.839 94.9735V78.2025H443.745V71.265H449.839V65.9775C449.839 59.9625 453.422 56.64 458.904 56.64C461.529 56.64 464.276 57.1088 464.276 57.1088V63.015H461.25C458.269 63.015 457.339 64.8652 457.339 66.765V71.265H463.995L462.931 78.2025H457.339V94.9735C468.812 93.173 477.589 83.2439 477.589 71.265Z" fill="#1877F2"/>
<path d="M462.931 78.2025L463.995 71.265H457.339V66.765C457.339 64.867 458.269 63.015 461.25 63.015H464.276V57.1088C464.276 57.1088 461.53 56.64 458.904 56.64C453.422 56.64 449.839 59.9625 449.839 65.9775V71.265H443.745V78.2025H449.839V94.9735C452.323 95.3622 454.854 95.3622 457.339 94.9735V78.2025H462.931Z" fill="white"/>
</g>
<path d="M506.977 70.7359L504.137 71.0857L499.501 59.5055L501.645 59.2415L504.525 66.5765L505.373 69.0473L505.516 69.0297L505.847 66.4137L507.326 58.5419L510.131 58.1965L513.636 65.4545L514.627 67.9077L514.77 67.8901L514.958 65.2917L515.812 57.4969L517.92 57.2373L516.392 69.5765L513.552 69.9263L510.282 63.2559L509.028 60.2909L508.867 60.3107L508.388 63.4891L506.977 70.7359ZM525.09 68.6869C522.142 69.0499 519.928 67.4182 519.591 64.6849C519.25 61.9158 521.004 59.8136 523.952 59.4506C526.918 59.0855 529.13 60.6992 529.471 63.4683C529.807 66.2017 528.055 68.3217 525.09 68.6869ZM524.878 66.9718C527.04 66.7056 527.808 65.5773 527.577 63.7015C527.344 61.8078 526.323 60.8816 524.161 61.1478C522.017 61.4118 521.252 62.558 521.485 64.4517C521.716 66.3275 522.735 67.2358 524.878 66.9718ZM533.346 67.4888L531.416 67.7264L530.323 58.8475L532.092 58.6297L532.386 61.0236L532.511 61.0082C532.603 59.546 533.427 58.2839 535.25 58.0595C537.268 57.8109 538.322 59.1501 538.529 60.8295L538.672 61.9907L536.76 62.2261L536.663 61.44C536.507 60.1716 535.899 59.648 534.577 59.8108C533.058 59.9978 532.536 60.9145 532.732 62.5045L533.346 67.4888ZM542.4 66.3738L540.471 66.6114L538.997 54.6418L540.926 54.4042L541.74 61.0143L544.277 60.7019L546.506 56.8547L548.757 56.5775L545.942 61.2587L549.832 65.4586L547.563 65.738L544.491 62.4348L541.954 62.7472L542.4 66.3738ZM555.019 65.0012C552.161 65.3532 550.397 64.4279 550.144 62.3734L550.137 62.3199L552.067 62.0823L552.084 62.2252C552.227 63.3864 552.97 63.6758 554.828 63.447C556.561 63.2336 557.035 62.8125 556.938 62.0264C556.848 61.294 556.391 61.1145 555.1 61.0921L552.631 61.0697C550.925 61.0621 549.819 60.4729 549.636 58.9901C549.445 57.4358 550.72 56.1544 553.453 55.8178C556.169 55.4834 557.947 56.3708 558.206 58.4789L558.213 58.5325L556.301 58.7679L556.288 58.6607C556.158 57.6066 555.554 57.1188 553.589 57.3608C551.963 57.561 551.436 57.9887 551.539 58.8284C551.625 59.5251 552.013 59.7312 553.375 59.7449L555.464 59.7777C557.605 59.7861 558.658 60.3819 558.839 61.8468C559.043 63.5083 557.521 64.6932 555.019 65.0012ZM562.464 63.9032L560.534 64.1408L559.06 52.1712L560.99 51.9336L561.705 57.7397L561.812 57.7265C561.931 56.1885 562.849 54.6608 565.118 54.3814C567.565 54.08 568.96 55.5405 569.226 57.7022L569.878 62.9902L567.966 63.2256L567.372 58.402C567.152 56.6155 566.26 55.9999 564.42 56.2265C562.312 56.4861 561.703 57.7219 561.933 59.5977L562.464 63.9032ZM576.172 62.3964C573.225 62.7594 571.011 61.1278 570.674 58.3944C570.333 55.6253 572.087 53.5232 575.035 53.1602C578.001 52.795 580.212 54.4088 580.553 57.1779C580.89 59.9112 579.138 62.0312 576.172 62.3964ZM575.961 60.6814C578.123 60.4152 578.891 59.2869 578.66 57.411C578.427 55.5174 577.406 54.5912 575.244 54.8574C573.1 55.1214 572.335 56.2675 572.568 58.1612C572.799 60.0371 573.817 60.9454 575.961 60.6814ZM584.803 64.2354L582.873 64.473L581.406 52.557L583.174 52.3392L583.478 54.8046L583.639 54.7848C583.794 53.0972 584.921 51.9428 587.011 51.6854C589.763 51.3466 591.548 53.0311 591.887 55.7823C592.225 58.5335 590.936 60.5784 588.167 60.9194C586.166 61.1658 584.75 60.2702 584.192 58.6885L584.121 58.6973L584.803 64.2354ZM583.901 56.9108C584.125 58.733 585.396 59.4833 587.29 59.2501C589.202 59.0147 590.219 58.1458 589.957 56.0199C589.693 53.8761 588.48 53.3 586.622 53.5288C584.639 53.773 583.645 54.8384 583.881 56.75L583.901 56.9108ZM597.99 59.7098C595.131 60.0618 593.367 59.1365 593.114 57.082L593.108 57.0284L595.037 56.7908L595.055 56.9337C595.198 58.0949 595.94 58.3843 597.798 58.1555C599.531 57.9421 600.005 57.521 599.909 56.735C599.818 56.0025 599.361 55.8231 598.071 55.8006L595.601 55.7782C593.896 55.7706 592.789 55.1814 592.607 53.6986C592.415 52.1444 593.69 50.8629 596.424 50.5263C599.139 50.192 600.917 51.0793 601.177 53.1874L601.183 53.241L599.272 53.4764L599.258 53.3692C599.129 52.3152 598.524 51.8273 596.559 52.0693C594.934 52.2695 594.406 52.6972 594.509 53.5369C594.595 54.2336 594.983 54.4397 596.345 54.4534L598.435 54.4862C600.576 54.4946 601.629 55.0904 601.809 56.5554C602.014 58.2168 600.491 59.4018 597.99 59.7098ZM614.389 53.0113L608.708 53.7109L608.506 52.0673L614.187 51.3677L614.389 53.0113ZM621.345 56.6524L619.416 56.89L617.942 44.9204L627.464 43.7478L627.677 45.4808L620.085 46.4157L620.542 50.1317L627.867 49.2297L628.078 50.9447L620.753 51.8467L621.345 56.6524ZM632.301 55.3032L630.372 55.5408L628.898 43.5712L631.524 43.2478L635.826 49.7549L637.221 52.1039L637.364 52.0863L638.112 49.4733L640.671 42.1215L643.297 41.7981L644.771 53.7677L642.842 54.0053L641.938 46.6627L641.796 44.921L641.653 44.9386L641.134 46.7617L638.645 53.7966L636.322 54.0826L632.201 47.8617L631.255 46.219L631.112 46.2366L631.397 47.9607L632.301 55.3032ZM652.408 53.0086C648.692 53.4662 645.928 51.3401 645.468 47.6063C645.008 43.8725 647.174 41.1393 650.89 40.6817C654.267 40.2659 656.845 41.762 657.197 44.6204L657.228 44.8705L655.102 45.1323L655.071 44.8822C654.847 43.06 653.564 42.2204 651.135 42.5196C648.33 42.865 647.137 44.3721 647.505 47.3555C647.872 50.339 649.392 51.4938 652.197 51.1484C654.627 50.8492 655.669 49.7415 655.443 47.9014L655.414 47.6692L657.54 47.4074L657.569 47.6396C657.923 50.5159 655.803 52.5906 652.408 53.0086ZM663.779 47.4734L661.85 47.711L661.775 47.1035C661.643 46.0316 662.213 45.3629 663.246 44.7642L664.464 44.052C665.427 43.48 665.917 43.0388 665.816 42.217C665.704 41.3059 665.086 40.7109 662.782 40.9947C660.281 41.3027 659.536 42.1743 659.72 43.6749L659.784 44.193L657.89 44.4262L657.84 44.0153C657.567 41.8 658.886 39.6971 662.691 39.2285C665.996 38.8215 667.517 40.1215 667.737 41.908C667.95 43.6409 666.812 44.5609 665.645 45.2486L664.425 45.943C663.781 46.3124 663.669 46.5801 663.733 47.0982L663.779 47.4734ZM664.402 51.3503L662.222 51.6187L661.896 48.9747L664.076 48.7063L664.402 51.3503Z" fill="white"/>
<rect width="73.2191" height="75.4868" transform="translate(638.639 9.0365) rotate(-7.08939)" fill="url(#paint1_linear_57_56)"/>
<path d="M675.914 46.6869L683.339 37.2592M684.34 45.6852L674.913 38.2609" stroke="white" stroke-width="1.5" stroke-linecap="round" stroke-linejoin="round"/>
<rect width="338.699" height="78.4866" transform="translate(187.401 60.3008) rotate(3.85798)" fill="#181818"/>
<g clip-path="url(#clip1_57_56)">
<path d="M264.43 128.828C277.685 128.828 288.43 118.083 288.43 104.828C288.43 91.5729 277.685 80.8278 264.43 80.8278C251.175 80.8278 240.43 91.5729 240.43 104.828C240.43 118.083 251.175 128.828 264.43 128.828Z" fill="white"/>
<path d="M264.43 80.8278C251.175 80.8278 240.43 91.5734 240.43 104.828C240.43 115.001 246.751 123.692 255.679 127.188C255.462 125.292 255.284 122.368 255.758 120.294C256.193 118.418 258.563 108.364 258.563 108.364C258.563 108.364 257.852 106.922 257.852 104.808C257.852 101.47 259.788 98.9808 262.198 98.9808C264.252 98.9808 265.24 100.522 265.24 102.359C265.24 104.413 263.936 107.494 263.245 110.359C262.672 112.749 264.45 114.704 266.8 114.704C271.067 114.704 274.346 110.201 274.346 103.722C274.346 97.9734 270.217 93.9636 264.311 93.9636C257.477 93.9636 253.467 99.0796 253.467 104.373C253.467 106.428 254.257 108.64 255.245 109.845C255.442 110.082 255.462 110.299 255.403 110.536C255.225 111.287 254.81 112.927 254.731 113.262C254.632 113.697 254.375 113.796 253.921 113.578C250.919 112.176 249.042 107.81 249.042 104.275C249.042 96.7092 254.533 89.7562 264.904 89.7562C273.22 89.7562 279.699 95.6821 279.699 103.623C279.699 111.899 274.484 118.556 267.254 118.556C264.825 118.556 262.533 117.292 261.763 115.791C261.763 115.791 260.558 120.373 260.262 121.499C259.729 123.593 258.267 126.201 257.279 127.801C259.531 128.492 261.901 128.867 264.39 128.867C277.645 128.867 288.39 118.122 288.39 104.867C288.43 91.5734 277.684 80.8278 264.43 80.8278Z" fill="#E60019"/>
</g>
<path d="M315.967 114.317L310.489 113.947L311.3 101.915L316.778 102.284C320.513 102.536 322.711 104.993 322.46 108.711C322.21 112.429 319.702 114.569 315.967 114.317ZM316.66 104.026L313.105 103.786L312.528 112.335L316.084 112.575C318.868 112.762 320.205 111.662 320.413 108.573C320.621 105.484 319.444 104.214 316.66 104.026ZM326.112 104.988L324.172 104.857L324.311 102.792L326.251 102.923L326.112 104.988ZM325.439 114.956L323.5 114.825L324.102 105.899L326.041 106.03L325.439 114.956ZM331.169 114.53C328.511 114.351 327.043 112.574 327.211 110.096C327.378 107.617 329.143 106.059 331.854 106.241C333.722 106.367 335.066 107.306 335.284 108.89L335.392 108.897L335.542 106.671L337.32 106.79L336.788 114.675C336.586 117.674 334.632 118.823 331.705 118.625C329.065 118.447 327.317 117.085 327.462 114.93L329.384 115.059C329.296 116.352 330.018 116.888 331.922 117.016C333.951 117.153 334.725 116.646 334.859 114.653L335.007 112.462L334.881 112.453C334.467 113.778 333.199 114.667 331.169 114.53ZM329.168 110.228C329.045 112.06 330.079 112.779 331.91 112.902C333.886 113.036 335.019 112.282 335.126 110.702L335.143 110.45C335.244 108.942 334.183 108.094 332.297 107.967C330.43 107.841 329.292 108.396 329.168 110.228ZM341.124 106.001L339.185 105.87L339.324 103.805L341.264 103.935L341.124 106.001ZM340.452 115.968L338.513 115.837L339.115 106.911L341.054 107.042L340.452 115.968ZM348.103 116.484L346.056 116.346C344.134 116.216 343.006 115.292 343.152 113.119L343.442 108.827L341.933 108.725L342.042 107.109L343.551 107.211L343.683 105.253L345.604 105.383L345.472 107.34L348.705 107.558L348.596 109.175L345.363 108.957L345.081 113.141C345.007 114.237 345.491 114.558 346.604 114.633L348.22 114.742L348.103 116.484ZM351.926 116.922C350.076 116.797 348.967 115.857 349.066 114.384C349.16 113.001 350.322 112.358 352.095 112.279L356.183 112.122L356.218 111.601C356.317 110.128 355.706 109.564 354 109.449C352.347 109.337 351.503 109.822 351.415 111.133L351.41 111.204L349.488 111.075L349.493 111.003C349.63 108.974 351.421 107.561 354.258 107.752C357.096 107.944 358.267 109.574 358.123 111.711L357.757 117.135L355.979 117.015L356.129 114.788L356.004 114.78C355.435 116.257 353.956 117.059 351.926 116.922ZM351.014 114.389C350.966 115.107 351.428 115.481 352.541 115.556C354.571 115.693 355.987 115.031 356.105 113.271L352.577 113.43C351.562 113.488 351.062 113.689 351.014 114.389ZM361.428 117.383L359.488 117.252L360.3 105.219L362.239 105.35L361.428 117.383ZM367.55 117.795L365.395 117.65L371.577 105.98L374.306 106.164L378.865 118.558L376.674 118.411L375.502 115.192L369.144 114.764L367.55 117.795ZM371.915 109.52L370.034 113.074L374.847 113.398L373.46 109.624L372.874 107.871L372.731 107.861L371.915 109.52ZM381.702 118.75L379.763 118.619L380.365 109.693L382.143 109.813L381.98 112.22L382.106 112.228C382.472 110.81 383.52 109.726 385.351 109.849C387.381 109.986 388.163 111.5 388.049 113.188L387.97 114.356L386.048 114.226L386.102 113.436C386.188 112.161 385.689 111.532 384.36 111.442C382.833 111.339 382.148 112.141 382.04 113.739L381.702 118.75ZM394.72 119.628L392.672 119.49C390.751 119.36 389.622 118.436 389.769 116.263L390.058 111.971L388.55 111.869L388.659 110.253L390.167 110.354L390.299 108.397L392.221 108.526L392.089 110.484L395.322 110.702L395.213 112.318L391.98 112.1L391.698 116.285C391.624 117.38 392.107 117.701 393.221 117.777L394.837 117.886L394.72 119.628ZM400.141 120.174C397.268 119.98 395.71 118.738 395.849 116.673L395.853 116.619L397.792 116.75L397.783 116.893C397.704 118.061 398.379 118.485 400.247 118.611C401.989 118.729 402.534 118.405 402.587 117.614C402.637 116.878 402.221 116.616 400.958 116.35L398.538 115.862C396.864 115.533 395.889 114.745 395.989 113.255C396.095 111.692 397.589 110.674 400.336 110.86C403.066 111.044 404.645 112.251 404.502 114.37L404.498 114.424L402.576 114.294L402.584 114.186C402.655 113.127 402.154 112.534 400.178 112.401C398.544 112.29 397.945 112.611 397.888 113.455C397.841 114.155 398.183 114.431 399.518 114.701L401.564 115.128C403.665 115.54 404.586 116.324 404.487 117.797C404.374 119.467 402.656 120.343 400.141 120.174ZM410.728 120.707L408.789 120.576L409.6 108.544L419.172 109.189L419.055 110.931L411.422 110.417L411.17 114.152L418.533 114.649L418.417 116.373L411.054 115.876L410.728 120.707ZM421.742 121.45L419.803 121.319L420.614 109.286L423.254 109.464L426.25 116.666L427.177 119.237L427.321 119.246L428.549 116.821L432.449 110.085L435.089 110.263L434.278 122.295L432.338 122.164L432.836 114.783L433.025 113.046L432.882 113.036L432.028 114.729L428.256 121.168L425.921 121.01L423.048 114.123L422.429 112.331L422.286 112.322L422.24 114.069L421.742 121.45ZM441.921 122.991C438.185 122.739 435.872 120.13 436.125 116.376C436.378 112.623 439.021 110.347 442.756 110.599C446.151 110.828 448.4 112.784 448.206 115.657L448.189 115.909L446.052 115.765L446.069 115.513C446.193 113.681 445.092 112.615 442.65 112.45C439.83 112.26 438.374 113.515 438.172 116.514C437.97 119.513 439.245 120.934 442.065 121.125C444.507 121.289 445.74 120.398 445.865 118.548L445.88 118.315L448.017 118.459L448.002 118.692C447.807 121.584 445.333 123.221 441.921 122.991ZM454.514 123.66L451.659 123.467L449.292 111.22L451.447 111.366L452.891 119.112L453.257 121.699L453.401 121.709L454.22 119.202L457.158 111.751L459.977 111.941L462.05 119.73L462.56 122.326L462.704 122.336L463.379 119.82L465.688 112.326L467.807 112.469L463.979 124.298L461.123 124.106L459.171 116.938L458.5 113.79L458.338 113.779L457.268 116.81L454.514 123.66Z" fill="white"/>
<rect width="73.2191" height="75.4868" transform="translate(452.411 78.2703) rotate(3.78876)" fill="url(#paint2_linear_57_56)"/>
<path d="M481.912 122.279L490.982 114.422M490.375 122.885L482.518 113.815" stroke="white" stroke-width="1.5" stroke-linecap="round" stroke-linejoin="round"/>
<rect width="338.699" height="78.4866" transform="translate(0 27.2183) rotate(-3.93079)" fill="#181818"/>
<g clip-path="url(#clip2_57_56)">
<path d="M77.299 80.79C95.3696 79.5483 104.225 63.8978 103.333 50.9146C103.303 50.4894 103.274 50.0661 103.217 49.6466C105.044 48.1237 106.585 46.2876 107.769 44.2242C106.031 45.1423 104.164 45.7941 102.232 46.1577C104.199 44.7891 105.601 42.7523 106.178 40.4267C104.328 41.7038 102.274 42.6553 100.103 43.2402C98.5138 41.7668 96.4829 40.8584 94.3251 40.6556C92.1673 40.4527 90.0027 40.9667 88.1664 42.1179C86.3301 43.2692 84.9244 44.9936 84.1669 47.0242C83.4093 49.0549 83.3422 51.2786 83.9758 53.3513C80.0562 53.4238 76.1652 52.6712 72.5553 51.1424C68.9454 49.6137 65.6973 47.3429 63.0219 44.4776C61.9141 46.7268 61.7052 49.3136 62.4378 51.7115C63.1703 54.1093 64.7892 56.1377 66.9649 57.3839C65.3981 57.4455 63.8396 57.1288 62.4211 56.4605L62.4297 56.585C62.5862 58.8533 63.5224 60.9977 65.0797 62.6544C66.637 64.3111 68.7194 65.3781 70.9737 65.6745C69.5543 66.1684 68.0407 66.3304 66.549 66.1479C67.3112 68.0568 68.6508 69.6798 70.3806 70.79C72.1104 71.9002 74.1439 72.4422 76.1968 72.3401C74.2698 74.0812 72.0184 75.4254 69.5714 76.2956C67.1244 77.1658 64.5299 77.545 61.9362 77.4115C66.6274 79.986 71.9603 81.1562 77.2984 80.7824" fill="#1DA1F2"/>
</g>
<path d="M132.131 63.4891L130.191 63.6224L129.364 51.5908L138.936 50.9331L139.056 52.675L131.424 53.1994L131.68 56.9346L139.043 56.4287L139.161 58.1526L131.799 58.6585L132.131 63.4891ZM143.144 62.7324L141.204 62.8656L140.377 50.834L143.017 50.6526L146.962 57.382L148.229 59.8029L148.372 59.793L149.26 57.2241L152.212 50.0209L154.851 49.8395L155.678 61.8711L153.739 62.0044L153.232 54.6238L153.184 52.8769L153.04 52.8868L152.423 54.6793L149.559 61.5699L147.225 61.7303L143.445 55.2963L142.589 53.605L142.445 53.6148L142.637 55.3518L143.144 62.7324ZM163.345 61.5247C159.61 61.7814 156.964 59.5094 156.706 55.7563C156.448 52.0031 158.758 49.3906 162.493 49.1339C165.887 48.9007 168.381 50.5336 168.579 53.4068L168.596 53.6582L166.459 53.8051L166.442 53.5537C166.316 51.722 165.081 50.8145 162.639 50.9823C159.819 51.1761 158.547 52.6167 158.753 55.6156C158.959 58.6145 160.415 59.8496 163.235 59.6559C165.677 59.4881 166.777 58.4382 166.65 56.5885L166.634 56.3551L168.771 56.2082L168.787 56.4417C168.986 59.3329 166.757 61.2903 163.345 61.5247ZM175.913 60.4807L173.058 60.6769L169.053 48.8637L171.207 48.7156L173.688 56.1951L174.402 58.7081L174.546 58.6982L175.017 56.1038L176.918 48.3232L179.737 48.1295L182.846 55.5658L183.704 58.0689L183.848 58.0591L184.175 55.4745L185.448 47.7371L187.567 47.5915L185.377 59.8304L182.521 60.0266L179.616 53.1897L178.524 50.1614L178.362 50.1726L177.712 53.3205L175.913 60.4807ZM189.363 52.3035L188.716 52.3479L188.635 51.1627L189.227 51.122C189.533 51.101 189.67 51.0013 189.644 50.6242L189.618 50.2471L188.541 50.3211L188.35 47.5377L190.792 47.3699L191.008 50.5125C191.086 51.6438 190.476 52.227 189.363 52.3035ZM202.847 58.63L192.773 59.3222L192.686 58.0472C192.533 55.8204 193.336 54.6466 195.756 53.6323L198.561 52.4472C199.962 51.8277 200.432 51.3083 200.359 50.2488C200.271 48.9738 199.401 48.3841 197.246 48.5322C194.84 48.6975 194 49.6032 194.108 51.1835L194.123 51.399L192.22 51.5298L192.207 51.3502C192.054 49.1235 193.443 47.0073 197.196 46.7494C200.608 46.515 202.155 48.0325 202.301 50.1515C202.437 52.1268 201.233 53.256 199.159 54.048L196.68 54.9942C195.102 55.6619 194.585 56.2748 194.678 57.6396L197.574 57.2422L202.728 56.8881L202.847 58.63ZM213.388 57.9057L211.466 58.0377L211.298 55.5955L203.613 56.1236L203.52 54.7768L210.316 46.0283L212.561 45.8741L213.1 53.7216L215.165 53.5797L215.285 55.3216L213.22 55.4635L213.388 57.9057ZM206.169 54.1979L211.179 53.8536L210.795 48.2688L210.651 48.2786L206.159 54.0542L206.169 54.1979ZM224.832 52.6448L219.121 53.0372L219.008 51.3851L224.718 50.9927L224.832 52.6448ZM234.701 56.6216C231.109 56.8684 229.169 55.414 228.995 52.882L228.987 52.7742L230.927 52.641L230.947 52.9283C231.045 54.3649 231.939 55.0252 234.578 54.8438C236.877 54.6859 237.651 54.1276 237.573 52.9962C237.501 51.9547 236.864 51.6016 235.317 51.4191L232.339 51.1366C230.285 50.9169 228.784 50.0818 228.649 48.1065C228.529 46.3646 229.845 44.506 233.58 44.2494C237.1 44.0075 238.819 45.6576 238.98 48.01L238.988 48.1178L237.066 48.2498L237.05 48.0163C236.949 46.5438 236.019 45.868 233.522 46.0395C231.332 46.1901 230.507 46.788 230.581 47.8655C230.652 48.907 231.286 49.2063 232.726 49.4141L235.688 49.7157C238.123 49.9814 239.384 50.9954 239.505 52.7552C239.631 54.5869 238.256 56.3773 234.701 56.6216ZM245.613 55.8718C242.686 56.073 240.651 54.5529 240.446 51.5719C240.255 48.7885 242.03 46.7901 244.939 46.5902C247.705 46.4002 249.695 47.797 249.881 50.5086C249.904 50.8318 249.903 51.0845 249.868 51.3576L242.289 51.8783C242.48 53.5973 243.387 54.4551 245.452 54.3132C247.319 54.1849 248.05 53.5213 247.977 52.4618L247.967 52.3181L249.906 52.1848L249.917 52.3465C250.048 54.25 248.271 55.6892 245.613 55.8718ZM245.008 48.1191C243.033 48.2548 242.231 49.1939 242.233 50.7996L248.034 50.401L248.031 50.3651C247.918 48.713 246.912 47.9883 245.008 48.1191ZM254.303 55.2747C252.453 55.4018 251.226 54.6201 251.125 53.1475C251.03 51.7648 252.094 50.97 253.841 50.6515L257.869 49.9417L257.834 49.4209C257.732 47.9484 257.05 47.472 255.344 47.5893C253.692 47.7028 252.921 48.297 253.011 49.6079L253.016 49.6798L251.094 49.8118L251.09 49.74C250.95 47.7108 252.533 46.0684 255.371 45.8734C258.208 45.6785 259.589 47.1352 259.736 49.2722L260.108 54.6954L258.331 54.8175L258.178 52.5908L258.052 52.5994C257.689 54.1399 256.332 55.1353 254.303 55.2747ZM253.056 52.8886C253.105 53.6069 253.614 53.9148 254.727 53.8383C256.756 53.6988 258.069 52.8508 257.948 51.091L254.474 51.7267C253.477 51.9215 253.008 52.1882 253.056 52.8886ZM266.359 54.4463C263.414 54.6486 261.363 52.8951 261.175 50.1476C260.983 47.3642 262.776 45.3645 265.721 45.1622C268.397 44.9783 270.458 46.3523 270.611 48.579L270.624 48.7586L268.702 48.8906L268.695 48.7829C268.6 47.4001 267.547 46.7868 265.805 46.9065C263.794 47.0447 262.961 48.0582 263.096 50.0156C263.228 51.937 264.193 52.8451 266.204 52.7069C267.946 52.5872 268.904 51.8357 268.809 50.4529L268.801 50.3272L270.722 50.1952L270.736 50.3927C270.889 52.6195 269.035 54.2624 266.359 54.4463ZM274.354 53.7165L272.414 53.8498L271.588 41.8182L273.527 41.6849L273.928 47.5211L274.036 47.5137C274.237 45.9843 275.237 44.5084 277.517 44.3516C279.977 44.1826 281.292 45.7161 281.441 47.889L281.806 53.2045L279.885 53.3365L279.552 48.4879C279.428 46.6922 278.571 46.0294 276.721 46.1565C274.602 46.3021 273.927 47.5032 274.056 49.3887L274.354 53.7165Z" fill="white"/>
<rect width="73.2191" height="75.4868" transform="translate(265 9.10754) rotate(-4)" fill="url(#paint3_linear_57_56)"/>
<path d="M300.192 48.7121L308.114 39.6983M308.66 48.166L299.646 40.2444" stroke="white" stroke-width="1.5" stroke-linecap="round" stroke-linejoin="round"/>
<defs>
<linearGradient id="paint0_linear_57_56" x1="75.376" y1="40.2485" x2="5.09312" y2="41.8497" gradientUnits="userSpaceOnUse">
<stop offset="0.473958" stop-color="#181818"/>
<stop offset="1" stop-color="#181818" stop-opacity="0.8"/>
</linearGradient>
<linearGradient id="paint1_linear_57_56" x1="75.376" y1="40.2485" x2="5.09312" y2="41.8497" gradientUnits="userSpaceOnUse">
<stop offset="0.473958" stop-color="#181818"/>
<stop offset="1" stop-color="#181818" stop-opacity="0.8"/>
</linearGradient>
<linearGradient id="paint2_linear_57_56" x1="75.376" y1="40.2485" x2="5.09312" y2="41.8497" gradientUnits="userSpaceOnUse">
<stop offset="0.473958" stop-color="#181818"/>
<stop offset="1" stop-color="#181818" stop-opacity="0.8"/>
</linearGradient>
<linearGradient id="paint3_linear_57_56" x1="75.376" y1="40.2485" x2="5.09312" y2="41.8497" gradientUnits="userSpaceOnUse">
<stop offset="0.473958" stop-color="#181818"/>
<stop offset="1" stop-color="#181818" stop-opacity="0.8"/>
</linearGradient>
<clipPath id="clip0_57_56">
<rect width="48" height="48" fill="white" transform="translate(429.589 47.265)"/>
</clipPath>
<clipPath id="clip1_57_56">
<rect width="48" height="48" fill="white" transform="translate(240.43 80.8278)"/>
</clipPath>
<clipPath id="clip2_57_56">
<rect width="48" height="48" fill="white" transform="translate(59.2574 38.4258) rotate(-3.93079)"/>
</clipPath>
</defs>
</svg>
