<svg width="1440" height="395" viewBox="0 0 1440 395" fill="none" xmlns="http://www.w3.org/2000/svg">
<line x1="75.5063" y1="2.28119e-08" x2="75.5062" y2="393.767" stroke="white" stroke-opacity="0.13" stroke-width="1.04375"/>
<line x1="174.663" y1="2.28119e-08" x2="174.662" y2="393.767" stroke="white" stroke-opacity="0.13" stroke-width="1.04375"/>
<line x1="273.819" y1="2.28119e-08" x2="273.819" y2="393.767" stroke="white" stroke-opacity="0.13" stroke-width="1.04375"/>
<line x1="372.975" y1="2.28119e-08" x2="372.975" y2="393.767" stroke="white" stroke-opacity="0.13" stroke-width="1.04375"/>
<line x1="472.131" y1="2.28119e-08" x2="472.131" y2="393.767" stroke="white" stroke-opacity="0.13" stroke-width="1.04375"/>
<line x1="571.288" y1="2.28119e-08" x2="571.287" y2="393.767" stroke="white" stroke-opacity="0.13" stroke-width="1.04375"/>
<line x1="670.444" y1="2.28119e-08" x2="670.444" y2="393.767" stroke="white" stroke-opacity="0.13" stroke-width="1.04375"/>
<line x1="769.6" y1="2.28119e-08" x2="769.6" y2="393.767" stroke="white" stroke-opacity="0.13" stroke-width="1.04375"/>
<line x1="868.756" y1="2.28119e-08" x2="868.756" y2="393.767" stroke="white" stroke-opacity="0.13" stroke-width="1.04375"/>
<line x1="967.913" y1="2.28119e-08" x2="967.912" y2="393.767" stroke="white" stroke-opacity="0.13" stroke-width="1.04375"/>
<line x1="1067.07" y1="2.28119e-08" x2="1067.07" y2="393.767" stroke="white" stroke-opacity="0.13" stroke-width="1.04375"/>
<line x1="1166.23" y1="2.28119e-08" x2="1166.22" y2="393.767" stroke="white" stroke-opacity="0.13" stroke-width="1.04375"/>
<line x1="1265.38" y1="2.28119e-08" x2="1265.38" y2="393.767" stroke="white" stroke-opacity="0.13" stroke-width="1.04375"/>
<line x1="1364.54" y1="2.28119e-08" x2="1364.54" y2="393.767" stroke="white" stroke-opacity="0.13" stroke-width="1.04375"/>
<line x1="1475.18" y1="65.3715" x2="-30.9556" y2="65.3716" stroke="white" stroke-opacity="0.13" stroke-width="1.04375"/>
<line x1="1473.09" y1="147.828" x2="-31.9976" y2="147.828" stroke="white" stroke-opacity="0.13" stroke-width="1.04375"/>
<line x1="1475.18" y1="230.284" x2="-30.9556" y2="230.283" stroke="white" stroke-opacity="0.13" stroke-width="1.04375"/>
<line x1="1473.09" y1="311.832" x2="-31.9976" y2="311.833" stroke="white" stroke-opacity="0.13" stroke-width="1.04375"/>
<line x1="1475.18" y1="394.153" x2="-31.9993" y2="394.153" stroke="white" stroke-opacity="0.13" stroke-width="1.04375"/>
<line x1="103" y1="272.5" x2="1291" y2="272.5" stroke="white"/>
</svg>
