<svg width="1440" height="1122" viewBox="0 0 1440 1122" fill="none" xmlns="http://www.w3.org/2000/svg">
<path d="M0 1121H1440" stroke="white" stroke-opacity="0.2"/>
<path d="M0 1058.78H1440" stroke="white" stroke-opacity="0.2"/>
<path d="M0 996.556L1440 996.556" stroke="white" stroke-opacity="0.2"/>
<path d="M0 934.333L1440 934.333" stroke="white" stroke-opacity="0.2"/>
<path d="M0 872.111L1440 872.111" stroke="white" stroke-opacity="0.2"/>
<path d="M0 809.889L1440 809.889" stroke="white" stroke-opacity="0.2"/>
<path d="M0 747.667L1440 747.667" stroke="white" stroke-opacity="0.2"/>
<path d="M0 685.444L1440 685.444" stroke="white" stroke-opacity="0.2"/>
<path d="M0 623.222L1440 623.222" stroke="white" stroke-opacity="0.2"/>
<path d="M0 561L1440 561" stroke="white" stroke-opacity="0.2"/>
<path d="M0 498.778L1440 498.778" stroke="white" stroke-opacity="0.2"/>
<path d="M0 436.556L1440 436.556" stroke="white" stroke-opacity="0.2"/>
<path d="M0 374.333L1440 374.333" stroke="white" stroke-opacity="0.2"/>
<path d="M0 312.111L1440 312.111" stroke="white" stroke-opacity="0.2"/>
<path d="M0 249.889L1440 249.889" stroke="white" stroke-opacity="0.2"/>
<path d="M0 187.667L1440 187.667" stroke="white" stroke-opacity="0.2"/>
<path d="M0 125.444L1440 125.444" stroke="white" stroke-opacity="0.2"/>
<path d="M0 63.2222L1440 63.2222" stroke="white" stroke-opacity="0.2"/>
<path d="M0 1L1440 1" stroke="white" stroke-opacity="0.2"/>
<path d="M0 1L0 1121" stroke="white" stroke-opacity="0.2"/>
<path d="M65.4546 1V1121" stroke="white" stroke-opacity="0.2"/>
<path d="M130.909 1V1121" stroke="white" stroke-opacity="0.2"/>
<path d="M196.364 1V1121" stroke="white" stroke-opacity="0.2"/>
<path d="M261.818 1V1121" stroke="white" stroke-opacity="0.2"/>
<path d="M327.272 1V1121" stroke="white" stroke-opacity="0.2"/>
<path d="M392.727 1V1121" stroke="white" stroke-opacity="0.2"/>
<path d="M458.182 1V1121" stroke="white" stroke-opacity="0.2"/>
<path d="M523.636 1V1121" stroke="white" stroke-opacity="0.2"/>
<path d="M589.091 1V1121" stroke="white" stroke-opacity="0.2"/>
<path d="M654.545 1V1121" stroke="white" stroke-opacity="0.2"/>
<path d="M720 1V1121" stroke="white" stroke-opacity="0.2"/>
<path d="M785.455 1V1121" stroke="white" stroke-opacity="0.2"/>
<path d="M850.909 1V1121" stroke="white" stroke-opacity="0.2"/>
<path d="M916.363 1V1121" stroke="white" stroke-opacity="0.2"/>
<path d="M981.818 1V1121" stroke="white" stroke-opacity="0.2"/>
<path d="M1047.27 1V1121" stroke="white" stroke-opacity="0.2"/>
<path d="M1112.73 1V1121" stroke="white" stroke-opacity="0.2"/>
<path d="M1178.18 1V1121" stroke="white" stroke-opacity="0.2"/>
<path d="M1243.64 1V1121" stroke="white" stroke-opacity="0.2"/>
<path d="M1309.09 1V1121" stroke="white" stroke-opacity="0.2"/>
<path d="M1374.55 1V1121" stroke="white" stroke-opacity="0.2"/>
<path d="M1440 1V1121" stroke="white" stroke-opacity="0.2"/>
</svg>
